<svg xmlns="http://www.w3.org/2000/svg" width="848" height="710" viewBox="0 0 848 710" font-family="sans-serif">
<rect width="848" height="710" fill="white"/>
<defs>
  <marker id="arrL" markerWidth="10" markerHeight="8" refX="1" refY="4" orient="auto">
    <path d="M10,0 L1,4 L10,8 z" fill="#333333"/>
  </marker>
  <marker id="arrR" markerWidth="10" markerHeight="8" refX="9" refY="4" orient="auto">
    <path d="M0,0 L9,4 L0,8 z" fill="#333333"/>
  </marker>
</defs>
<text x="50" y="30" font-size="20" fill="#333333" font-weight="bold">Bench cut sheet — six 8′ 2x4s</text>
<text x="50" y="50" font-size="12" fill="#888888">lengths are nominal — saw kerf (≈1/8″ per cut) not included</text>
<line x1="50" y1="72" x2="818" y2="72" stroke="#333333" stroke-width="1" marker-start="url(#arrL)" marker-end="url(#arrR)"/>
<text x="434.0" y="86" font-size="12" fill="#333333" text-anchor="middle">96″  (8 ft)</text>
<line x1="50" y1="66" x2="50" y2="86" stroke="#333333" stroke-width="0.6"/>
<line x1="818" y1="66" x2="818" y2="86" stroke="#333333" stroke-width="0.6"/>
<text x="50" y="106" font-size="13" fill="#333333" font-weight="bold">Board 1</text>
<rect x="50" y="114" width="336" height="28.0" fill="#c68a4b" stroke="#333333" stroke-width="1"/>
<text x="218.0" y="132.0" font-size="12" fill="white" text-anchor="middle">top slat</text>
<line x1="50" y1="158.0" x2="386" y2="158.0" stroke="#333333" stroke-width="1" marker-start="url(#arrL)" marker-end="url(#arrR)"/>
<text x="218.0" y="172.0" font-size="12" fill="#333333" text-anchor="middle">42″</text>
<line x1="50" y1="144.0" x2="50" y2="162.0" stroke="#333333" stroke-width="0.6"/>
<line x1="386" y1="144.0" x2="386" y2="162.0" stroke="#333333" stroke-width="0.6"/>
<line x1="386" y1="111" x2="386" y2="145.0" stroke="black" stroke-width="2.5"/>
<rect x="386" y="114" width="336" height="28.0" fill="#a86f35" stroke="#333333" stroke-width="1"/>
<text x="554.0" y="132.0" font-size="12" fill="white" text-anchor="middle">top slat</text>
<line x1="386" y1="158.0" x2="722" y2="158.0" stroke="#333333" stroke-width="1" marker-start="url(#arrL)" marker-end="url(#arrR)"/>
<text x="554.0" y="172.0" font-size="12" fill="#333333" text-anchor="middle">42″</text>
<line x1="386" y1="144.0" x2="386" y2="162.0" stroke="#333333" stroke-width="0.6"/>
<line x1="722" y1="144.0" x2="722" y2="162.0" stroke="#333333" stroke-width="0.6"/>
<line x1="722" y1="111" x2="722" y2="145.0" stroke="black" stroke-width="2.5"/>
<rect x="722" y="114" width="96" height="28.0" fill="#dddddd" stroke="#333333" stroke-width="1"/>
<text x="770.0" y="132.0" font-size="12" fill="#888888" text-anchor="middle" font-style="italic">scrap</text>
<line x1="722" y1="158.0" x2="818" y2="158.0" stroke="#888888" stroke-width="1" marker-start="url(#arrL)" marker-end="url(#arrR)"/>
<text x="770.0" y="172.0" font-size="12" fill="#888888" text-anchor="middle">12″</text>
<line x1="722" y1="144.0" x2="722" y2="162.0" stroke="#888888" stroke-width="0.6"/>
<line x1="818" y1="144.0" x2="818" y2="162.0" stroke="#888888" stroke-width="0.6"/>
<text x="50" y="206" font-size="13" fill="#333333" font-weight="bold">Board 2</text>
<rect x="50" y="214" width="336" height="28.0" fill="#c68a4b" stroke="#333333" stroke-width="1"/>
<text x="218.0" y="232.0" font-size="12" fill="white" text-anchor="middle">top slat</text>
<line x1="50" y1="258.0" x2="386" y2="258.0" stroke="#333333" stroke-width="1" marker-start="url(#arrL)" marker-end="url(#arrR)"/>
<text x="218.0" y="272.0" font-size="12" fill="#333333" text-anchor="middle">42″</text>
<line x1="50" y1="244.0" x2="50" y2="262.0" stroke="#333333" stroke-width="0.6"/>
<line x1="386" y1="244.0" x2="386" y2="262.0" stroke="#333333" stroke-width="0.6"/>
<line x1="386" y1="211" x2="386" y2="245.0" stroke="black" stroke-width="2.5"/>
<rect x="386" y="214" width="336" height="28.0" fill="#a86f35" stroke="#333333" stroke-width="1"/>
<text x="554.0" y="232.0" font-size="12" fill="white" text-anchor="middle">top slat</text>
<line x1="386" y1="258.0" x2="722" y2="258.0" stroke="#333333" stroke-width="1" marker-start="url(#arrL)" marker-end="url(#arrR)"/>
<text x="554.0" y="272.0" font-size="12" fill="#333333" text-anchor="middle">42″</text>
<line x1="386" y1="244.0" x2="386" y2="262.0" stroke="#333333" stroke-width="0.6"/>
<line x1="722" y1="244.0" x2="722" y2="262.0" stroke="#333333" stroke-width="0.6"/>
<line x1="722" y1="211" x2="722" y2="245.0" stroke="black" stroke-width="2.5"/>
<rect x="722" y="214" width="96" height="28.0" fill="#dddddd" stroke="#333333" stroke-width="1"/>
<text x="770.0" y="232.0" font-size="12" fill="#888888" text-anchor="middle" font-style="italic">scrap</text>
<line x1="722" y1="258.0" x2="818" y2="258.0" stroke="#888888" stroke-width="1" marker-start="url(#arrL)" marker-end="url(#arrR)"/>
<text x="770.0" y="272.0" font-size="12" fill="#888888" text-anchor="middle">12″</text>
<line x1="722" y1="244.0" x2="722" y2="262.0" stroke="#888888" stroke-width="0.6"/>
<line x1="818" y1="244.0" x2="818" y2="262.0" stroke="#888888" stroke-width="0.6"/>
<text x="50" y="306" font-size="13" fill="#333333" font-weight="bold">Board 3</text>
<rect x="50" y="314" width="336" height="28.0" fill="#c68a4b" stroke="#333333" stroke-width="1"/>
<text x="218.0" y="332.0" font-size="12" fill="white" text-anchor="middle">top slat</text>
<line x1="50" y1="358.0" x2="386" y2="358.0" stroke="#333333" stroke-width="1" marker-start="url(#arrL)" marker-end="url(#arrR)"/>
<text x="218.0" y="372.0" font-size="12" fill="#333333" text-anchor="middle">42″</text>
<line x1="50" y1="344.0" x2="50" y2="362.0" stroke="#333333" stroke-width="0.6"/>
<line x1="386" y1="344.0" x2="386" y2="362.0" stroke="#333333" stroke-width="0.6"/>
<line x1="386" y1="311" x2="386" y2="345.0" stroke="black" stroke-width="2.5"/>
<rect x="386" y="314" width="336" height="28.0" fill="#a86f35" stroke="#333333" stroke-width="1"/>
<text x="554.0" y="332.0" font-size="12" fill="white" text-anchor="middle">top slat</text>
<line x1="386" y1="358.0" x2="722" y2="358.0" stroke="#333333" stroke-width="1" marker-start="url(#arrL)" marker-end="url(#arrR)"/>
<text x="554.0" y="372.0" font-size="12" fill="#333333" text-anchor="middle">42″</text>
<line x1="386" y1="344.0" x2="386" y2="362.0" stroke="#333333" stroke-width="0.6"/>
<line x1="722" y1="344.0" x2="722" y2="362.0" stroke="#333333" stroke-width="0.6"/>
<line x1="722" y1="311" x2="722" y2="345.0" stroke="black" stroke-width="2.5"/>
<rect x="722" y="314" width="96" height="28.0" fill="#dddddd" stroke="#333333" stroke-width="1"/>
<text x="770.0" y="332.0" font-size="12" fill="#888888" text-anchor="middle" font-style="italic">scrap</text>
<line x1="722" y1="358.0" x2="818" y2="358.0" stroke="#888888" stroke-width="1" marker-start="url(#arrL)" marker-end="url(#arrR)"/>
<text x="770.0" y="372.0" font-size="12" fill="#888888" text-anchor="middle">12″</text>
<line x1="722" y1="344.0" x2="722" y2="362.0" stroke="#888888" stroke-width="0.6"/>
<line x1="818" y1="344.0" x2="818" y2="362.0" stroke="#888888" stroke-width="0.6"/>
<text x="50" y="406" font-size="13" fill="#333333" font-weight="bold">Board 4</text>
<rect x="50" y="414" width="288" height="28.0" fill="#c68a4b" stroke="#333333" stroke-width="1"/>
<text x="194.0" y="432.0" font-size="12" fill="white" text-anchor="middle">long apron rail</text>
<line x1="50" y1="458.0" x2="338" y2="458.0" stroke="#333333" stroke-width="1" marker-start="url(#arrL)" marker-end="url(#arrR)"/>
<text x="194.0" y="472.0" font-size="12" fill="#333333" text-anchor="middle">36″</text>
<line x1="50" y1="444.0" x2="50" y2="462.0" stroke="#333333" stroke-width="0.6"/>
<line x1="338" y1="444.0" x2="338" y2="462.0" stroke="#333333" stroke-width="0.6"/>
<line x1="338" y1="411" x2="338" y2="445.0" stroke="black" stroke-width="2.5"/>
<rect x="338" y="414" width="288" height="28.0" fill="#a86f35" stroke="#333333" stroke-width="1"/>
<text x="482.0" y="432.0" font-size="12" fill="white" text-anchor="middle">long apron rail</text>
<line x1="338" y1="458.0" x2="626" y2="458.0" stroke="#333333" stroke-width="1" marker-start="url(#arrL)" marker-end="url(#arrR)"/>
<text x="482.0" y="472.0" font-size="12" fill="#333333" text-anchor="middle">36″</text>
<line x1="338" y1="444.0" x2="338" y2="462.0" stroke="#333333" stroke-width="0.6"/>
<line x1="626" y1="444.0" x2="626" y2="462.0" stroke="#333333" stroke-width="0.6"/>
<line x1="626" y1="411" x2="626" y2="445.0" stroke="black" stroke-width="2.5"/>
<rect x="626" y="414" width="136" height="28.0" fill="#c68a4b" stroke="#333333" stroke-width="1"/>
<text x="694.0" y="432.0" font-size="12" fill="white" text-anchor="middle">end rail</text>
<line x1="626" y1="458.0" x2="762" y2="458.0" stroke="#333333" stroke-width="1" marker-start="url(#arrL)" marker-end="url(#arrR)"/>
<text x="694.0" y="472.0" font-size="12" fill="#333333" text-anchor="middle">17″</text>
<line x1="626" y1="444.0" x2="626" y2="462.0" stroke="#333333" stroke-width="0.6"/>
<line x1="762" y1="444.0" x2="762" y2="462.0" stroke="#333333" stroke-width="0.6"/>
<line x1="762" y1="411" x2="762" y2="445.0" stroke="black" stroke-width="2.5"/>
<rect x="762" y="414" width="56" height="28.0" fill="#dddddd" stroke="#333333" stroke-width="1"/>
<text x="790.0" y="432.0" font-size="12" fill="#888888" text-anchor="middle" font-style="italic">scrap</text>
<line x1="762" y1="458.0" x2="818" y2="458.0" stroke="#888888" stroke-width="1" marker-start="url(#arrL)" marker-end="url(#arrR)"/>
<text x="790.0" y="472.0" font-size="12" fill="#888888" text-anchor="middle">7″</text>
<line x1="762" y1="444.0" x2="762" y2="462.0" stroke="#888888" stroke-width="0.6"/>
<line x1="818" y1="444.0" x2="818" y2="462.0" stroke="#888888" stroke-width="0.6"/>
<text x="50" y="506" font-size="13" fill="#333333" font-weight="bold">Board 5</text>
<rect x="50" y="514" width="240" height="28.0" fill="#c68a4b" stroke="#333333" stroke-width="1"/>
<text x="170.0" y="532.0" font-size="12" fill="white" text-anchor="middle">bottom rail</text>
<line x1="50" y1="558.0" x2="290" y2="558.0" stroke="#333333" stroke-width="1" marker-start="url(#arrL)" marker-end="url(#arrR)"/>
<text x="170.0" y="572.0" font-size="12" fill="#333333" text-anchor="middle">30″</text>
<line x1="50" y1="544.0" x2="50" y2="562.0" stroke="#333333" stroke-width="0.6"/>
<line x1="290" y1="544.0" x2="290" y2="562.0" stroke="#333333" stroke-width="0.6"/>
<line x1="290" y1="511" x2="290" y2="545.0" stroke="black" stroke-width="2.5"/>
<rect x="290" y="514" width="136" height="28.0" fill="#a86f35" stroke="#333333" stroke-width="1"/>
<text x="358.0" y="532.0" font-size="12" fill="white" text-anchor="middle">end rail</text>
<line x1="290" y1="558.0" x2="426" y2="558.0" stroke="#333333" stroke-width="1" marker-start="url(#arrL)" marker-end="url(#arrR)"/>
<text x="358.0" y="572.0" font-size="12" fill="#333333" text-anchor="middle">17″</text>
<line x1="290" y1="544.0" x2="290" y2="562.0" stroke="#333333" stroke-width="0.6"/>
<line x1="426" y1="544.0" x2="426" y2="562.0" stroke="#333333" stroke-width="0.6"/>
<line x1="426" y1="511" x2="426" y2="545.0" stroke="black" stroke-width="2.5"/>
<rect x="426" y="514" width="136" height="28.0" fill="#c68a4b" stroke="#333333" stroke-width="1"/>
<text x="494.0" y="532.0" font-size="12" fill="white" text-anchor="middle">cross rail</text>
<line x1="426" y1="558.0" x2="562" y2="558.0" stroke="#333333" stroke-width="1" marker-start="url(#arrL)" marker-end="url(#arrR)"/>
<text x="494.0" y="572.0" font-size="12" fill="#333333" text-anchor="middle">17″</text>
<line x1="426" y1="544.0" x2="426" y2="562.0" stroke="#333333" stroke-width="0.6"/>
<line x1="562" y1="544.0" x2="562" y2="562.0" stroke="#333333" stroke-width="0.6"/>
<line x1="562" y1="511" x2="562" y2="545.0" stroke="black" stroke-width="2.5"/>
<rect x="562" y="514" width="112" height="28.0" fill="#a86f35" stroke="#333333" stroke-width="1"/>
<text x="618.0" y="532.0" font-size="12" fill="white" text-anchor="middle">stretcher</text>
<line x1="562" y1="558.0" x2="674" y2="558.0" stroke="#333333" stroke-width="1" marker-start="url(#arrL)" marker-end="url(#arrR)"/>
<text x="618.0" y="572.0" font-size="12" fill="#333333" text-anchor="middle">14″</text>
<line x1="562" y1="544.0" x2="562" y2="562.0" stroke="#333333" stroke-width="0.6"/>
<line x1="674" y1="544.0" x2="674" y2="562.0" stroke="#333333" stroke-width="0.6"/>
<line x1="674" y1="511" x2="674" y2="545.0" stroke="black" stroke-width="2.5"/>
<rect x="674" y="514" width="112" height="28.0" fill="#c68a4b" stroke="#333333" stroke-width="1"/>
<text x="730.0" y="532.0" font-size="12" fill="white" text-anchor="middle">stretcher</text>
<line x1="674" y1="558.0" x2="786" y2="558.0" stroke="#333333" stroke-width="1" marker-start="url(#arrL)" marker-end="url(#arrR)"/>
<text x="730.0" y="572.0" font-size="12" fill="#333333" text-anchor="middle">14″</text>
<line x1="674" y1="544.0" x2="674" y2="562.0" stroke="#333333" stroke-width="0.6"/>
<line x1="786" y1="544.0" x2="786" y2="562.0" stroke="#333333" stroke-width="0.6"/>
<line x1="786" y1="511" x2="786" y2="545.0" stroke="black" stroke-width="2.5"/>
<rect x="786" y="514" width="32" height="28.0" fill="#dddddd" stroke="#333333" stroke-width="1"/>
<text x="802.0" y="532.0" font-size="12" fill="#888888" text-anchor="middle" font-style="italic">scrap</text>
<line x1="786" y1="558.0" x2="818" y2="558.0" stroke="#888888" stroke-width="1" marker-start="url(#arrL)" marker-end="url(#arrR)"/>
<text x="802.0" y="572.0" font-size="12" fill="#888888" text-anchor="middle">4″</text>
<line x1="786" y1="544.0" x2="786" y2="562.0" stroke="#888888" stroke-width="0.6"/>
<line x1="818" y1="544.0" x2="818" y2="562.0" stroke="#888888" stroke-width="0.6"/>
<text x="50" y="606" font-size="13" fill="#333333" font-weight="bold">Board 6</text>
<rect x="50" y="614" width="124.0" height="28.0" fill="#c68a4b" stroke="#333333" stroke-width="1"/>
<text x="112.0" y="632.0" font-size="12" fill="white" text-anchor="middle">leg</text>
<line x1="50" y1="658.0" x2="174.0" y2="658.0" stroke="#333333" stroke-width="1" marker-start="url(#arrL)" marker-end="url(#arrR)"/>
<text x="112.0" y="672.0" font-size="12" fill="#333333" text-anchor="middle">15.5″</text>
<line x1="50" y1="644.0" x2="50" y2="662.0" stroke="#333333" stroke-width="0.6"/>
<line x1="174.0" y1="644.0" x2="174.0" y2="662.0" stroke="#333333" stroke-width="0.6"/>
<line x1="174.0" y1="611" x2="174.0" y2="645.0" stroke="black" stroke-width="2.5"/>
<rect x="174.0" y="614" width="124.0" height="28.0" fill="#a86f35" stroke="#333333" stroke-width="1"/>
<text x="236.0" y="632.0" font-size="12" fill="white" text-anchor="middle">leg</text>
<line x1="174.0" y1="658.0" x2="298.0" y2="658.0" stroke="#333333" stroke-width="1" marker-start="url(#arrL)" marker-end="url(#arrR)"/>
<text x="236.0" y="672.0" font-size="12" fill="#333333" text-anchor="middle">15.5″</text>
<line x1="174.0" y1="644.0" x2="174.0" y2="662.0" stroke="#333333" stroke-width="0.6"/>
<line x1="298.0" y1="644.0" x2="298.0" y2="662.0" stroke="#333333" stroke-width="0.6"/>
<line x1="298.0" y1="611" x2="298.0" y2="645.0" stroke="black" stroke-width="2.5"/>
<rect x="298.0" y="614" width="124.0" height="28.0" fill="#c68a4b" stroke="#333333" stroke-width="1"/>
<text x="360.0" y="632.0" font-size="12" fill="white" text-anchor="middle">leg</text>
<line x1="298.0" y1="658.0" x2="422.0" y2="658.0" stroke="#333333" stroke-width="1" marker-start="url(#arrL)" marker-end="url(#arrR)"/>
<text x="360.0" y="672.0" font-size="12" fill="#333333" text-anchor="middle">15.5″</text>
<line x1="298.0" y1="644.0" x2="298.0" y2="662.0" stroke="#333333" stroke-width="0.6"/>
<line x1="422.0" y1="644.0" x2="422.0" y2="662.0" stroke="#333333" stroke-width="0.6"/>
<line x1="422.0" y1="611" x2="422.0" y2="645.0" stroke="black" stroke-width="2.5"/>
<rect x="422.0" y="614" width="124.0" height="28.0" fill="#a86f35" stroke="#333333" stroke-width="1"/>
<text x="484.0" y="632.0" font-size="12" fill="white" text-anchor="middle">leg</text>
<line x1="422.0" y1="658.0" x2="546.0" y2="658.0" stroke="#333333" stroke-width="1" marker-start="url(#arrL)" marker-end="url(#arrR)"/>
<text x="484.0" y="672.0" font-size="12" fill="#333333" text-anchor="middle">15.5″</text>
<line x1="422.0" y1="644.0" x2="422.0" y2="662.0" stroke="#333333" stroke-width="0.6"/>
<line x1="546.0" y1="644.0" x2="546.0" y2="662.0" stroke="#333333" stroke-width="0.6"/>
<line x1="546.0" y1="611" x2="546.0" y2="645.0" stroke="black" stroke-width="2.5"/>
<rect x="546.0" y="614" width="272.0" height="28.0" fill="#dddddd" stroke="#333333" stroke-width="1"/>
<text x="682.0" y="632.0" font-size="12" fill="#888888" text-anchor="middle" font-style="italic">scrap</text>
<line x1="546.0" y1="658.0" x2="818.0" y2="658.0" stroke="#888888" stroke-width="1" marker-start="url(#arrL)" marker-end="url(#arrR)"/>
<text x="682.0" y="672.0" font-size="12" fill="#888888" text-anchor="middle">34″</text>
<line x1="546.0" y1="644.0" x2="546.0" y2="662.0" stroke="#888888" stroke-width="0.6"/>
<line x1="818.0" y1="644.0" x2="818.0" y2="662.0" stroke="#888888" stroke-width="0.6"/>
</svg>
